# xmcd
#
# Track frame offsets:
#	150
#	20705
#	42037
#	60122
#	88295
#	110803
#	132154
#	157053
#	176761
#	196480
#	218432
#
# Disc length: 3210 seconds
#
# Revision: 2
# Processed by: cddbd v1.5.2PL0 Copyright (c) Steve Scherf et al.
# Submitted via: EZCDAudioConverter 8.0.2.1
#
DISCID=970c880b
DTITLE=Various Artist - Người Ngoài Phố
DYEAR=2004
DGENRE=
TTITLE0=Như Quỳnh - Người Ngoài Phố
TTITLE1=Quang Lê - Cô hàng xóm
TTITLE2=Phi Nhung - Phải em lý ngựa ô
TTITLE3=Trường Vũ - Người em cùng xóm
TTITLE4=Phương Diễm Hạnh - Ngày buồn
TTITLE5=Quang Lê - Mất nhau rồi
TTITLE6=Hương Thủy - Ca dao
TTITLE7=Mạnh Quỳnh - Một căn nhà mướn
TTITLE8=Ngọc Hạ - Non nước hữu tình
TTITLE9=Như Quỳnh - Thách cưới
TTITLE10=Phi Nhung - Kỷ niệm thời con gái
EXTD=
EXTT0=
EXTT1=
EXTT2=
EXTT3=
EXTT4=
EXTT5=
EXTT6=
EXTT7=
EXTT8=
EXTT9=
EXTT10=
PLAYORDER=
